<?xml version="1.0" encoding="UTF-8"?>
<!DOCTYPE svg
PUBLIC "-//W3C//DTD SVG 1.1//EN"
       "http://www.w3.org/Graphics/SVG/1.1/DTD/svg11.dtd">
<svg viewBox="162 7 902 554" width="740px" height="547px" xmlns="http://www.w3.org/2000/svg" version="1.1">
   <line x1="423" y1="250" x2="413" y2="250" style="stroke:#0bf;stroke-width:1;"/>
   <line x1="294" y1="352" x2="284" y2="352" style="stroke:#0bf;stroke-width:1;"/>
   <line x1="413" y1="250" x2="294" y2="352" style="stroke:#0bf;stroke-width:1;"/>
   <line x1="415.5" y1="250" x2="419.03553390593" y2="253.53553390593" style="stroke:#0bf;stroke-width:2;"/>
   <line x1="415.5" y1="250" x2="419.03553390593" y2="246.46446609407" style="stroke:#0bf;stroke-width:2;"/>
   <line x1="289" y1="352" x2="292.53553390593" y2="355.53553390593" style="stroke:#0bf;stroke-width:2;"/>
   <line x1="289" y1="352" x2="292.53553390593" y2="348.46446609407" style="stroke:#0bf;stroke-width:2;"/>
   <line x1="513" y1="270" x2="523" y2="270" style="stroke:#cb0;stroke-width:1;"/>
   <line x1="672" y1="231" x2="682" y2="231" style="stroke:#cb0;stroke-width:1;"/>
   <line x1="523" y1="270" x2="672" y2="231" style="stroke:#cb0;stroke-width:1;"/>
   <line x1="520.5" y1="270" x2="516.96446609407" y2="273.53553390593" style="stroke:#cb0;stroke-width:2;"/>
   <line x1="520.5" y1="270" x2="516.96446609407" y2="266.46446609407" style="stroke:#cb0;stroke-width:2;"/>
   <line x1="677" y1="231" x2="673.46446609407" y2="234.53553390593" style="stroke:#cb0;stroke-width:2;"/>
   <line x1="677" y1="231" x2="673.46446609407" y2="227.46446609407" style="stroke:#cb0;stroke-width:2;"/>
   <line x1="182" y1="138" x2="172" y2="138" style="stroke:#b0b;stroke-width:1;"/>
   <line x1="167" y1="352" x2="177" y2="352" style="stroke:#b0b;stroke-width:1;"/>
   <line x1="172" y1="138" x2="167" y2="352" style="stroke:#b0b;stroke-width:1;"/>
   <line x1="174.5" y1="138" x2="178.03553390593" y2="141.53553390593" style="stroke:#b0b;stroke-width:2;"/>
   <line x1="174.5" y1="138" x2="178.03553390593" y2="134.46446609407" style="stroke:#b0b;stroke-width:2;"/>
   <line x1="172" y1="352" x2="168.46446609407" y2="355.53553390593" style="stroke:#b0b;stroke-width:2;"/>
   <line x1="172" y1="352" x2="168.46446609407" y2="348.46446609407" style="stroke:#b0b;stroke-width:2;"/>
   <line x1="604" y1="72" x2="594" y2="72" style="stroke:#bbb;stroke-width:1;"/>
   <line x1="272" y1="118" x2="262" y2="118" style="stroke:#bbb;stroke-width:1;"/>
   <line x1="594" y1="72" x2="272" y2="118" style="stroke:#bbb;stroke-width:1;"/>
   <line x1="596.5" y1="72" x2="600.03553390593" y2="75.535533905933" style="stroke:#bbb;stroke-width:2;"/>
   <line x1="596.5" y1="72" x2="600.03553390593" y2="68.464466094067" style="stroke:#bbb;stroke-width:2;"/>
   <line x1="267" y1="118" x2="270.53553390593" y2="121.53553390593" style="stroke:#bbb;stroke-width:2;"/>
   <line x1="267" y1="118" x2="270.53553390593" y2="114.46446609407" style="stroke:#bbb;stroke-width:2;"/>
   <line x1="729" y1="92" x2="739" y2="92" style="stroke:#0b0;stroke-width:1;"/>
   <line x1="672" y1="231" x2="682" y2="231" style="stroke:#0b0;stroke-width:1;"/>
   <line x1="739" y1="92" x2="672" y2="231" style="stroke:#0b0;stroke-width:1;"/>
   <line x1="736.5" y1="92" x2="732.96446609407" y2="95.535533905933" style="stroke:#0b0;stroke-width:2;"/>
   <line x1="736.5" y1="92" x2="732.96446609407" y2="88.464466094067" style="stroke:#0b0;stroke-width:2;"/>
   <line x1="677" y1="231" x2="673.46446609407" y2="234.53553390593" style="stroke:#0b0;stroke-width:2;"/>
   <line x1="677" y1="231" x2="673.46446609407" y2="227.46446609407" style="stroke:#0b0;stroke-width:2;"/>
   <line x1="416" y1="469" x2="406" y2="469" style="stroke:#0bf;stroke-width:1;"/>
   <line x1="294" y1="352" x2="284" y2="352" style="stroke:#0bf;stroke-width:1;"/>
   <line x1="406" y1="469" x2="294" y2="352" style="stroke:#0bf;stroke-width:1;"/>
   <line x1="408.5" y1="469" x2="412.03553390593" y2="472.53553390593" style="stroke:#0bf;stroke-width:2;"/>
   <line x1="408.5" y1="469" x2="412.03553390593" y2="465.46446609407" style="stroke:#0bf;stroke-width:2;"/>
   <line x1="289" y1="352" x2="292.53553390593" y2="355.53553390593" style="stroke:#0bf;stroke-width:2;"/>
   <line x1="289" y1="352" x2="292.53553390593" y2="348.46446609407" style="stroke:#0bf;stroke-width:2;"/>
   <rect width="90" height="20" x="423" y="200" style="fill:#007;stroke:black;"/>
   <text width="90" height="20" x="428" y="214" style="fill:#fff;" font-family="Arial" font-size="16px"> carritos</text>
   <rect width="90" height="20" x="423" y="220" style="fill:#aea;stroke:black;"/>
   <text width="90" height="20" x="428" y="234" style="fill:black;" font-family="Arial" font-size="16px">id</text>
   <rect width="90" height="20" x="423" y="240" style="fill:none;stroke:black;"/>
   <text width="90" height="20" x="428" y="254" style="fill:black;" font-family="Arial" font-size="16px">usuario_id</text>
   <rect width="90" height="20" x="423" y="260" style="fill:none;stroke:black;"/>
   <text width="90" height="20" x="428" y="274" style="fill:black;" font-family="Arial" font-size="16px">producto_id</text>
   <rect width="90" height="20" x="423" y="280" style="fill:none;stroke:black;"/>
   <text width="90" height="20" x="428" y="294" style="fill:black;" font-family="Arial" font-size="16px">cantidad</text>
   <rect width="80" height="20" x="182" y="88" style="fill:#007;stroke:black;"/>
   <text width="80" height="20" x="187" y="102" style="fill:#fff;" font-family="Arial" font-size="16px"> compras</text>
   <rect width="80" height="20" x="182" y="108" style="fill:#aea;stroke:black;"/>
   <text width="80" height="20" x="187" y="122" style="fill:black;" font-family="Arial" font-size="16px">id</text>
   <rect width="80" height="20" x="182" y="128" style="fill:none;stroke:black;"/>
   <text width="80" height="20" x="187" y="142" style="fill:black;" font-family="Arial" font-size="16px">usuario_id</text>
   <rect width="80" height="20" x="182" y="148" style="fill:none;stroke:black;"/>
   <text width="80" height="20" x="187" y="162" style="fill:black;" font-family="Arial" font-size="16px">total</text>
   <rect width="80" height="20" x="182" y="168" style="fill:none;stroke:black;"/>
   <text width="80" height="20" x="187" y="182" style="fill:black;" font-family="Arial" font-size="16px">fecha</text>
   <rect width="125" height="20" x="604" y="22" style="fill:#007;stroke:black;"/>
   <text width="125" height="20" x="609" y="36" style="fill:#fff;" font-family="Arial" font-size="16px"> detallescompras</text>
   <rect width="125" height="20" x="604" y="42" style="fill:#aea;stroke:black;"/>
   <text width="125" height="20" x="609" y="56" style="fill:black;" font-family="Arial" font-size="16px">id</text>
   <rect width="125" height="20" x="604" y="62" style="fill:none;stroke:black;"/>
   <text width="125" height="20" x="609" y="76" style="fill:black;" font-family="Arial" font-size="16px">compra_id</text>
   <rect width="125" height="20" x="604" y="82" style="fill:none;stroke:black;"/>
   <text width="125" height="20" x="609" y="96" style="fill:black;" font-family="Arial" font-size="16px">producto_id</text>
   <rect width="125" height="20" x="604" y="102" style="fill:none;stroke:black;"/>
   <text width="125" height="20" x="609" y="116" style="fill:black;" font-family="Arial" font-size="16px">cantidad</text>
   <rect width="125" height="20" x="604" y="122" style="fill:none;stroke:black;"/>
   <text width="125" height="20" x="609" y="136" style="fill:black;" font-family="Arial" font-size="16px">precio</text>
   <rect width="105" height="20" x="416" y="419" style="fill:#007;stroke:black;"/>
   <text width="105" height="20" x="421" y="433" style="fill:#fff;" font-family="Arial" font-size="16px"> mensajeschat</text>
   <rect width="105" height="20" x="416" y="439" style="fill:#aea;stroke:black;"/>
   <text width="105" height="20" x="421" y="453" style="fill:black;" font-family="Arial" font-size="16px">id</text>
   <rect width="105" height="20" x="416" y="459" style="fill:none;stroke:black;"/>
   <text width="105" height="20" x="421" y="473" style="fill:black;" font-family="Arial" font-size="16px">usuario_id</text>
   <rect width="105" height="20" x="416" y="479" style="fill:none;stroke:black;"/>
   <text width="105" height="20" x="421" y="493" style="fill:black;" font-family="Arial" font-size="16px">mensaje</text>
   <rect width="105" height="20" x="416" y="499" style="fill:none;stroke:black;"/>
   <text width="105" height="20" x="421" y="513" style="fill:black;" font-family="Arial" font-size="16px">fecha</text>
   <rect width="105" height="20" x="416" y="519" style="fill:none;stroke:black;"/>
   <text width="105" height="20" x="421" y="533" style="fill:black;" font-family="Arial" font-size="16px">es_usuario</text>
   <rect width="148" height="20" x="682" y="201" style="fill:#007;stroke:black;"/>
   <text width="148" height="20" x="687" y="215" style="fill:#fff;" font-family="Arial" font-size="16px"> productos</text>
   <rect width="148" height="20" x="682" y="221" style="fill:#aea;stroke:black;"/>
   <text width="148" height="20" x="687" y="235" style="fill:black;" font-family="Arial" font-size="16px">id</text>
   <rect width="148" height="20" x="682" y="241" style="fill:none;stroke:black;"/>
   <text width="148" height="20" x="687" y="255" style="fill:black;" font-family="Arial" font-size="16px">nombre</text>
   <rect width="148" height="20" x="682" y="261" style="fill:none;stroke:black;"/>
   <text width="148" height="20" x="687" y="275" style="fill:black;" font-family="Arial" font-size="16px">precio</text>
   <rect width="148" height="20" x="682" y="281" style="fill:none;stroke:black;"/>
   <text width="148" height="20" x="687" y="295" style="fill:black;" font-family="Arial" font-size="16px">descuento</text>
   <rect width="148" height="20" x="682" y="301" style="fill:none;stroke:black;"/>
   <text width="148" height="20" x="687" y="315" style="fill:black;" font-family="Arial" font-size="16px">cantidad_disponible</text>
   <rect width="148" height="20" x="682" y="321" style="fill:none;stroke:black;"/>
   <text width="148" height="20" x="687" y="335" style="fill:black;" font-family="Arial" font-size="16px">imagen</text>
   <rect width="148" height="20" x="682" y="341" style="fill:none;stroke:black;"/>
   <text width="148" height="20" x="687" y="355" style="fill:black;" font-family="Arial" font-size="16px">descripcion</text>
   <rect width="91" height="20" x="796" y="405" style="fill:#007;stroke:black;"/>
   <text width="91" height="20" x="801" y="419" style="fill:#fff;" font-family="Arial" font-size="16px"> servicios</text>
   <rect width="91" height="20" x="796" y="425" style="fill:#aea;stroke:black;"/>
   <text width="91" height="20" x="801" y="439" style="fill:black;" font-family="Arial" font-size="16px">id</text>
   <rect width="91" height="20" x="796" y="445" style="fill:none;stroke:black;"/>
   <text width="91" height="20" x="801" y="459" style="fill:black;" font-family="Arial" font-size="16px">nombre</text>
   <rect width="91" height="20" x="796" y="465" style="fill:none;stroke:black;"/>
   <text width="91" height="20" x="801" y="479" style="fill:black;" font-family="Arial" font-size="16px">descripcion</text>
   <rect width="91" height="20" x="796" y="485" style="fill:none;stroke:black;"/>
   <text width="91" height="20" x="801" y="499" style="fill:black;" font-family="Arial" font-size="16px">precio</text>
   <rect width="91" height="20" x="796" y="505" style="fill:none;stroke:black;"/>
   <text width="91" height="20" x="801" y="519" style="fill:black;" font-family="Arial" font-size="16px">imagen</text>
   <rect width="107" height="20" x="177" y="322" style="fill:#007;stroke:black;"/>
   <text width="107" height="20" x="182" y="336" style="fill:#fff;" font-family="Arial" font-size="16px"> usuarios</text>
   <rect width="107" height="20" x="177" y="342" style="fill:#aea;stroke:black;"/>
   <text width="107" height="20" x="182" y="356" style="fill:black;" font-family="Arial" font-size="16px">id</text>
   <rect width="107" height="20" x="177" y="362" style="fill:none;stroke:black;"/>
   <text width="107" height="20" x="182" y="376" style="fill:black;" font-family="Arial" font-size="16px">nombre</text>
   <rect width="107" height="20" x="177" y="382" style="fill:none;stroke:black;"/>
   <text width="107" height="20" x="182" y="396" style="fill:black;" font-family="Arial" font-size="16px">email</text>
   <rect width="107" height="20" x="177" y="402" style="fill:none;stroke:black;"/>
   <text width="107" height="20" x="182" y="416" style="fill:black;" font-family="Arial" font-size="16px">contrasena</text>
   <rect width="107" height="20" x="177" y="422" style="fill:none;stroke:black;"/>
   <text width="107" height="20" x="182" y="436" style="fill:black;" font-family="Arial" font-size="16px">fecha_registro</text>
</svg>
